<?xml version="1.0" encoding="UTF-8" standalone="no"?>
<!-- Created with Inkscape (http://www.inkscape.org/) -->

<svg
   xmlns:dc="http://purl.org/dc/elements/1.1/"
   xmlns:cc="http://creativecommons.org/ns#"
   xmlns:rdf="http://www.w3.org/1999/02/22-rdf-syntax-ns#"
   xmlns:svg="http://www.w3.org/2000/svg"
   xmlns="http://www.w3.org/2000/svg"
   xmlns:sodipodi="http://sodipodi.sourceforge.net/DTD/sodipodi-0.dtd"
   xmlns:inkscape="http://www.inkscape.org/namespaces/inkscape"
   width="744.09448819"
   height="1052.3622047"
   id="svg2"
   version="1.1"
   inkscape:version="0.48.5 r10040"
   sodipodi:docname="Dokumen baru 1">
  <defs
     id="defs4" />
  <sodipodi:namedview
     id="base"
     pagecolor="#ffffff"
     bordercolor="#666666"
     borderopacity="1.0"
     inkscape:pageopacity="0.0"
     inkscape:pageshadow="2"
     inkscape:zoom="0.98994949"
     inkscape:cx="448.16169"
     inkscape:cy="773.97201"
     inkscape:document-units="px"
     inkscape:current-layer="layer1"
     showgrid="false"
     inkscape:window-width="1366"
     inkscape:window-height="715"
     inkscape:window-x="-8"
     inkscape:window-y="-8"
     inkscape:window-maximized="1" />
  <metadata
     id="metadata7">
    <rdf:RDF>
      <cc:Work
         rdf:about="">
        <dc:format>image/svg+xml</dc:format>
        <dc:type
           rdf:resource="http://purl.org/dc/dcmitype/StillImage" />
        <dc:title></dc:title>
      </cc:Work>
    </rdf:RDF>
  </metadata>
  <g
     inkscape:label="Layer 1"
     inkscape:groupmode="layer"
     id="layer1">
    <g
       id="g2996"
       inkscape:export-filename="D:\exps\cs\GDIGame\Snake\icon16.png"
       inkscape:export-xdpi="45.160873"
       inkscape:export-ydpi="45.160873">
      <g
         id="text2985"
         style="font-size:210.50105286px;font-style:normal;font-variant:normal;font-weight:normal;font-stretch:normal;line-height:125%;letter-spacing:0px;word-spacing:0px;fill:#005c94;fill-opacity:1;stroke:none;font-family:Rockwell;-inkscape-font-specification:Rockwell"
         transform="matrix(3.0626591,0,0,2.8834832,-517.42128,-1122.7072)">
        <path
           sodipodi:nodetypes="cccccccccccccccccccccccccscsscccccccccccccccccccccccccccccccccccccccccscccccccccccccccccccccccccccccc"
           inkscape:connector-curvature="0"
           id="path2990"
           style="fill:#005c94;font-family:Papyrus;-inkscape-font-specification:Papyrus"
           d="m 310.50885,460.73583 -2.67237,1.95289 c -2.67244,-0.75371 -4.79663,-1.13059 -6.37259,-1.13062 -1.85016,3e-5 -4.07714,0.13708 -6.68094,0.41113 -0.7538,-1.57598 -1.78164,-2.77512 -3.08352,-3.59743 l -1.95289,2.56959 c -1.43901,0.20561 -3.15207,0.58248 -5.13918,1.13062 -0.82231,0.20561 -1.5418,0.30839 -2.15846,0.30836 -0.13708,3e-5 -0.34265,-0.0342 -0.6167,-0.10279 -2.60389,-0.54814 -3.90582,-0.82223 -3.90578,-0.82227 -0.0686,4e-5 -0.17134,0.10282 -0.30836,0.30835 l -1.95289,-2.05567 c -1.09638,0.4797 -2.02144,0.71952 -2.77516,0.71948 -0.27411,4e-5 -1.13064,-0.34257 -2.56959,-1.02783 -0.34264,-0.13701 -0.95934,-0.37683 -1.85011,-0.71949 -5.27624,-1.85006 -7.91436,-4.86505 -7.91434,-9.04497 -2e-5,-3.63163 1.40469,-7.22906 4.21413,-10.79229 0.75373,-1.02777 2.67235,-2.84361 5.75589,-5.44753 l 2.05567,-1.95289 4.83084,-2.87795 c 4.93358,-3.01491 8.56527,-5.00206 10.89507,-5.96145 5.34471,-2.19264 9.62736,-3.289 12.84797,-3.28908 0.54812,8e-5 5.40043,-2.52546 11.01933,-1.08656 l 5.16787,0.69745 c 3.35753,0.20565 3.7185,2.06799 4.26676,2.342 0.22781,1.41276 0.43646,2.62539 0.94056,2.96707 0.96265,0.65248 6.93248,-0.68635 6.93253,-0.23668 -5.54273,1.18791 -0.085,2.04127 -1.62418,2.48287 -0.7047,0.20219 -1.14688,-1.37976 -1.86938,-1.51655 -1.40647,-0.26627 -3.04662,0.10956 -3.3517,0.41464 -1.45637,1.15693 -1.99174,1.47083 -4.51833,4.15425 -3.28915,1.98722 -5.65732,1.91006 -6.06839,1.90999 -4.45402,7e-5 -7.70884,-0.30829 -9.76445,-0.92506 -0.68528,-1.4389 -1.40477,-2.60378 -2.15846,-3.49464 l -0.6167,0 -1.95289,2.05567 c -1.16494,0.0686 -2.02147,0.10286 -2.5696,0.10278 -0.61675,8e-5 -1.19919,-0.0342 -1.74732,-0.10278 -0.75379,-0.0684 -1.30197,-0.10271 -1.64454,-0.10278 -0.13709,7e-5 -1.02788,0.20564 -2.67238,0.6167 -0.54822,-0.41106 -1.57606,-0.61663 -3.08351,-0.6167 -1.37049,1.0279 -3.63173,2.39835 -6.78372,4.11135 -1.64457,0.89085 -3.06641,2.22704 -4.26553,4.00856 -1.19917,1.78165 -1.79874,3.46045 -1.79871,5.0364 -3e-5,0.75381 0.65093,1.71312 1.95289,2.87795 0.20554,0.20562 1.40468,0.7538 3.59743,1.64454 1.30189,0.61675 2.63808,1.3705 4.00856,2.26124 -0.0686,0.54823 -0.10282,0.99362 -0.10278,1.33619 -4e-5,1.43902 0.5824,2.1585 1.74732,2.15845 1.09632,5e-5 2.32973,-0.89074 3.70022,-2.67237 1.57597,0.20562 2.91216,0.3084 4.00856,0.30835 0.41109,5e-5 2.36398,-0.3083 5.85867,-0.92505 l 3.28908,0.30835 c 3.01493,-0.41109 4.65947,-0.61665 4.93362,-0.61671 0.4796,6e-5 2.22692,0.47971 5.24197,1.43898 l 3.70021,-0.41114 3.70022,2.56959 c 3.97422,1.85016 6.68086,3.59748 8.11991,5.24197 1.09628,1.3705 1.71298,2.46685 1.85011,3.28908 l 0.71948,3.39187 c 0.95923,4.11138 1.43889,6.4754 1.43898,7.09207 -9e-5,0.41117 -0.13713,1.61031 -0.41114,3.59743 -0.3427,4.38546 -1.61036,6.57818 -3.803,6.57816 -0.6853,2e-5 -0.97302,2.70172 -1.86373,2.49613 -0.82235,3.42614 -2.00786,2.57455 -2.55597,3.05419 -3.08358,3.56318 -5.07073,5.96146 -5.96145,7.19486 -3.49471,0.47966 -6.37266,1.54176 -8.63383,3.1863 -1.0279,0.82227 -1.6446,1.26766 -1.85011,1.33619 -0.20563,0.0685 -1.06216,0.1713 -2.56959,0.30835 l -8.32548,2.26124 c -2.74095,-0.47966 -4.24844,-0.71949 -4.52249,-0.71949 -0.41118,0 -2.46685,0.54818 -6.16702,1.64454 l -2.46681,-0.30835 c -3.28911,-0.20557 -5.75592,-0.47966 -7.40043,-0.82227 -3.56319,-0.89079 -5.44756,-1.54175 -5.6531,-1.95289 l -3.28908,-2.15846 c -4.04284,-2.4668 -6.54391,-4.24838 -7.50321,-5.34475 -2.05569,-2.39828 -1.83279,-3.19832 -1.83278,-5.45957 -10e-6,-0.47965 3.50534,-8.69555 3.63704,-9.86045 l -0.30874,-13.74689 c 2.60384,-1.9186 3.56812,10.59395 3.97927,10.59393 0.27407,2e-5 -0.61176,3.16224 -0.40617,3.36778 -0.05,6.73406 0.36283,4.80925 0.36285,6.59082 l 3.71628,2.14179 0,0.10278 c -0.56889,0.99915 1.35349,0.84143 1.76465,1.18402 0.27406,0.27411 0.25674,1.2828 2.44948,2.5162 0.47963,0.2741 1.09633,0.71949 1.85011,1.33618 1.71303,1.50751 2.60382,2.26125 2.67237,2.26125 l 3.803,1.54175 3.49465,1.85011 3.90578,0 2.46681,0.51392 c 2.53528,-0.75375 4.79652,-1.16488 6.78372,-1.23341 1.91858,-0.0685 3.32329,-0.3426 4.21414,-0.82227 l 4.00856,-1.95289 c 2.19266,-0.75374 3.46032,-1.26766 3.803,-1.54175 1.30186,-1.02783 3.01492,-3.28907 5.13918,-6.78373 2.19265,-3.63167 3.28901,-7.77728 3.28908,-12.43683 -7e-5,-1.02781 -0.30842,-1.98712 -0.92505,-2.87794 -2.67244,-4.04279 -4.3855,-6.81795 -5.13919,-8.32548 z" />
      </g>
      <path
         transform="matrix(3.0336506,0,0,2.9110556,-514.17094,-1122.7072)"
         d="m 319.73216,418.61218 a 0.84821427,0.53571427 0 1 1 -1.69643,0 0.84821427,0.53571427 0 1 1 1.69643,0 z"
         sodipodi:ry="0.53571427"
         sodipodi:rx="0.84821427"
         sodipodi:cy="418.61218"
         sodipodi:cx="318.88394"
         id="path2992"
         style="fill:#ffffff;fill-rule:evenodd;stroke:#ffffff;stroke-width:1px;stroke-linecap:butt;stroke-linejoin:miter;stroke-opacity:1"
         sodipodi:type="arc" />
      <rect
         ry="0"
         y="76.069229"
         x="256.45596"
         height="255.08807"
         width="255.08807"
         id="rect2994"
         style="fill:none;fill-rule:evenodd;stroke:none;stroke-width:0.91193133999999998px;stroke-linecap:butt;stroke-linejoin:miter;stroke-opacity:1" />
    </g>
  </g>
</svg>
